<mxfile host="app.diagrams.net" modified="2024-04-03T18:02:04.060Z" agent="Mozilla/5.0 (Windows NT 10.0; Win64; x64) AppleWebKit/537.36 (KHTML, like Gecko) Chrome/123.0.0.0 Safari/537.36" etag="qJIcNFUIMHhh21fVQJB_" version="24.2.2" type="github">
  <diagram name="Page-1" id="RA4-XJDNQsP-MtF4VrwT">
    <mxGraphModel dx="874" dy="512" grid="1" gridSize="10" guides="1" tooltips="1" connect="1" arrows="1" fold="1" page="1" pageScale="1" pageWidth="827" pageHeight="1169" math="0" shadow="0">
      <root>
        <mxCell id="0" />
        <mxCell id="1" parent="0" />
        <mxCell id="ddLbTC-nwEFg6EeF6Wu0-2" value="&lt;span data-meta=&quot;&lt;--(miro-data-v1)tl2kroutqq+gnq+gn111oZynrqBnXZ2qnK2fhJ9ddV2wk6WRhpWMc5xtiHhdZ12fnK+cXXW2XaqdpaCer65ddZa2XbKkn6Kgr3+cr5xddbZdpa6qqV11tl2prnWfpJyirZyoqKSpoomqr5yvpKqpXXW2XaCnoKigqa9ddV2hp6qynqOcra9or6CtqKSpnK+qrV1nXZ6qp6egnq+kqqlddV2hp6qynqOcra9duGddmquqrqSvpKqpXXW2Xaqhoa6gr4uzXXW2XbNddWhubmtpcGtvbmttcGt0cXFycW9nXbRddWhsa29pbHBwbnNwc29vc3FrbnC4uGddrp6cp6BddbZdrp6cp6BddWy4Z12toKecr6SxoI6enKegXXVsZ12tqq+cr6SqqV11tl2tqq+cr6SqqV11a7hnXa2gp5yvpLGgjaqvnK+kqqlddWtnXa6ktaBddbZdsqSfr6NddWxxc2ddo6CkoqOvXXV0cbhnXauqrqSvpKqpXXW2XbNddWhubmtpcGtvbmttcGt0cXFycW9nXbRddWhsa29pbHBwbnNwc29vc3FrbnC4Z12aq5ytoKmvXXWpsKenZ12ur7SnoF11XbaXXa+el111bHJsa3Fsc2eXXa+unpdddWtnl12dnpdddXJzb3FsdHRnl12dqpdddWxnl12drZ6XXXVscmxrcWxzZ5ddna2yl111bWeXXZ2tqpdddWxnl12dra6XXXVtZ5ddoaGpl111l12Kq6CpjpyprpddZ5ddoa6XXXVtb7hdZ12unqOgqJxddbZdpJ9ddV2hp6qynqOcra9or6CtqKSpnK+qrV1nXZ+cr5xddbZdoaqtqLCnnJGcp7Cgrl11tl2ypJ+vo111bHFzZ12joKSio69ddXRxuGddraCuqrCtnqCuXXW2uGddpK+grZyvqq2uXXW2uGddr6Czr65ddbZdqZyooF11tl2voLOvXXVdd6t5d66vraqpoluur7SnoHiXXZ6qp6qtdVutop1jbXBwZ1ttcHBnW21wcGR2l115jq+cra93aq6vraqponl3aqt5XWddrq+0p6CuXXW2XaGhqV11XYKtnJ+wnK+gXWddr5xddV2eXWddr5yxXXVdqF1nXaGuXXVucbi4uLi4uGddr7SroF11Xa6voKmepKdduGddr7SroF11bG9nXaSfXXVrZ12kqaSvpJynhJ9ddV1ub3BzcnFvcHNvbnFxc29xb2xvXbhntl2ypJ+ioK9/nK+cXXW2XaWuqqlddbZdq6qkqa+uXXWWmGddq62kqJyttF11tl2rqqSpr111tl2zXXVraXBnXbRddWy4Z12rqq6kr6SqqY+0q6BddWtnXbKkn6Kgr4Spn6CzXXVruGddrqCeqqmfnK20XXW2XauqpKmvXXW2XbNddWtpcGddtF11a7hnXauqrqSvpKqpj7SroF11a2ddsqSfoqCvhKmfoLNddW24Z12aq6qupK+kqqlddamwp6dnXZqrnK2gqa9ddamwp6dnXa6vtKegXXVdtpddp56XXXVubnBwb29uZ5ddp66XXXVtZ5ddr5dddW5nl12nr5dddWxnl12cmq6vnK2vl111a2eXXZyaoKmfl111dGeXXZGAjZdddW1nl12lsKirl111a7hdZ12npKmgXXW2XZ6cq6+kqqmuXXWWmLi4Z12vtKugXXVdp6SpoF24Z12vtKugXXVsb2ddpJ9ddWxnXaSppK+knKeEn111XW5vcHNycW9wc29ucXJrb21zcXBduGe2XbKkn6Kgr3+cr5xddbZdpa6qqV11tl2prnWfpJyirZyoqKSpoomqr5yvpKqpXXW2XaCnoKigqa9ddV2hp6qynqOcra9oq62gn6ChpKmgn2irraqeoK6uXWddnqqnp6Cer6SqqV11XaGnqrKeo5ytr124Z12aq6qupK+kqqlddbZdqqGhrqCvi7NddbZds111aG5ua2lwa29ua21wa3RxcXJxb2ddtF11cXJpbHBwbnNwc29vc3FrbW64uGddrp6cp6BddbZdrp6cp6BddWy4Z12toKecr6SxoI6enKegXXVsZ12tqq+cr6SqqV11tl2tqq+cr6SqqV11a7hnXa2gp5yvpLGgjaqvnK+kqqlddWtnXa6ktaBddbZdsqSfr6NddWxyc2ltcXJra25ybHJzbHBwcWddo6CkoqOvXXVxcWlxbGxwc2txcXJucHRsbbhnXauqrqSvpKqpXXW2XbNddWhubmtpcGtvbmttcGt0cXFycW9nXbRddXFyaWxwcG5zcHNvb3Nxa21uuGddmqucraCpr111qbCnp2ddrq+0p6BddV22l12vnpdddWxybGtxbHNnl12vrp6XXXVrZ5ddnZ6XXXVscXJycm1scGeXXZ2ql111bGeXXZ2tnpdddWxybGtxbHNnl12drbKXXXVtZ5ddna2ql111bGeXXZ2trpdddW1nl12hoamXXXWXXYKtnJ+wnK+gl11nl12hrpdddW5xZ5ddnZdddWxnl12kl111a2eXXbCXXXVrZ5ddrpdddWu4XWddrp6joKicXXW2XaSfXXVdoaeqsp6jnK2vaKutoJ+goaSpoJ9oq62qnqCurl1nXZ+cr5xddbZdoaqtqLCnnJGcp7Cgrl11tl2ypJ+vo111bHJzaW1xcmtrbnJscnNscHBxZ12joKSio69ddXFxaXFsbHBza3Fxcm5wdGxtuGddraCuqrCtnqCuXXW2uGddpK+grZyvqq2uXXW2uGddr6Czr65ddbZdqZyooF11tl2voLOvXXVdd6t5d66vraqpoluur7SnoHiXXZ2cnqairaqwqZ9onqqnqq11W6+tnKmuq5ytoKmvdlueqqeqrXVbraKdY21xZ1ttcWdbbXFkdpddeY2gnJ9boaSnoK53aq6vraqponl3aqt5XWddrq+0p6CuXXW2XaGhqV11XYKtnJ+wnK+gXWddr5xddV2eXWddr5yxXXVdqF1nXaGuXXVsc7i4uLi4uGddr7SroF11Xa6voKmepKdduGddr7SroF11bG9nXaSfXXVtZ12kqaSvpJynhJ9ddV1ub3BzcnFvcHNvbnFya29tdGtwXbhntl2ypJ+ioK9/nK+cXXW2XaWuqqlddbZdmquqrqSvpKqpXXW2Xaqhoa6gr4uzXXW2XbNddWhscHNpcG1sbnNrb3Frb3BucnJnXbRddXFyaWxwcG5zcHNvb3Nxa210uLhnXa6enKegXXW2Xa6enKegXXVsuGddraCnnK+ksaCOnpynoF11bGddraqvnK+kqqlddbZdraqvnK+kqqlddWu4Z12toKecr6SxoI2qr5yvpKqpXXVrZ12upLWgXXW2XbKkn6+jXXVsbWtnXaOgpKKjr111b2xpdG1tbm5wb29rb2xtcWy4Z12rqq6kr6SqqV11tl2zXXVobHBzaXBtbG5za29xa29wbnJyZ120XXVxcmlscHBuc3Bzb29zcWttdLhnXZqrnK2gqa9ddamwp6dnXa+gs69ddV1dZ12ur7SnoF11XbaXXa6vl111bG1nl12urpdddW1nl12unpdddWxybGtxbHNnl12dnpdddWhsZ5ddnaqXXXVsZ5ddna2el111bHJsa3Fsc2eXXZ2tspdddW1nl12draqXXXVsZ5ddna2ul111bWeXXaGhqZdddZddiqugqY6cqa6XXWeXXa+el111bHJsa3Fsc2eXXa+unpdddWxnl12vnJdddZddnpddZ5ddr5yxl111l12ol11nl12hrpdddW1uZ5ddnZdddWtnl12kl111a2eXXbCXXXVrZ5ddrpdddWtnl12drp6XXXVsZ5ddkYCNl111bWlsZ5ddo6eXXXWXXZdduF1nXa6jnKugXXVdbG1duGddr7SroF11Xa6jnKugXbhnXa+0q6BddWxvZ12kn111bmddpKmkr6Scp4SfXXVdbm9wc3Jxb3Bzb25xcm5wbG5rb124Z7ZdsqSfoqCvf5yvnF11tl2lrqqpXXW2XZqrqq6kr6SqqV11tl2qoaGuoK+Ls111tl2zXXVscWtpcHBzbWxsdHBva3FrcnJnXbRddXFyaWxwcG5zcHNvb3Nxa210uLhnXa6enKegXXW2Xa6enKegXXVsuGddraCnnK+ksaCOnpynoF11bGddraqvnK+kqqlddbZdraqvnK+kqqlddWu4Z12toKecr6SxoI2qr5yvpKqpXXVrZ12upLWgXXW2XbKkn6+jXXVwbHNpbHB0bHNvc210a210bWddo6CkoqOvXXVscmu4Z12rqq6kr6SqqV11tl2zXXVscWtpcHBzbWxsdHBva3FrcnJnXbRddXFyaWxwcG5zcHNvb3Nxa210uGddmqucraCpr111qbCnp2ddr6Czr111XXereXeur62qqaJ5XqSpnqewn6BbYaevdqSqrq+toJyoYaKvdltqaoRqilt+qqmuqqegd2qur62qqaJ5d2qreXereXeur62qqaJ5XqSpnqewn6BbYaevdqGur62gnKhhoq92W/3bampbhGqKW6Gkp6Bbo5ypn6egd2qur62qqaJ5d2qreXereXeur62qqaJ5XqSpnqewn6BbYaevdq6ur62gnKhhoq92/dtqaluPqluwrqBbr6OgW66vraSpoq6vraCcqFuep5yurndqrq+tqqmieXdqq3l3q3l3rq+tqqmieV6kqZ6nsJ+gW2Gnr3axoJ6vqq1hoq92W/3bW2pqnq2gnK+gW7Ggnq+qrVuxnK2knJ2noHdqrq+tqqmieXdqq3l3q3l3rq+tqqmieV6kqZ6nsJ+gW2Gnr3aerq+fpKphoq92d2qur62qqaJ5d2qreXereXeur62qqaJ5XqSpnqewn6BbYaevdpynoqqtpK+jqGGir3ZbamqtoKiqsaBbrqucnqBbnWqyW66vraSpondqrq+tqqmieXdqq3l3q3l3rq+tqqmieV6kqZ6nsJ+gW2Gnr3aer6SooGGir3Zb/dtb/dtbamqhqq1bnrCtraCpr1uvpKigd2qur62qqaJ5d2qreXereXeur62qqaJ5XqSpnqewn6BbYaevdq+jraCcn2Gir3Zb/dtb/dtqaluhqq1bq5ywrqBbq62qoq2cqFukqVuuqqigW6+kqKCud2qur62qqaJ5d2qreXereXeur62qqaJ5XqSpnqewn6BbYaevdp6jraqpqmGir3Zb/dtb/dtqaqGqrVurnLCuoFurraqirZyoW6SpW66qqKBbr6SooK53aq6vraqponl3aqt5d6t5d66vraqponlepKmep7CfoFthp692nqicr6Nhoq92W2pqnpynnrCnnK+gW6icr6OuW6utqp2noKh3aq6vraqponl3aqt5XWddrq+0p6BddV22l12ur5dddWxvZ5ddnZ6XXXVobGeXXZ2ql111bGeXXZ2unpdddWtnl12vnJdddZddp5ddZ5ddr56XXXVscmxrcWxzZ5ddr66el111bGeXXaGhqZdddZddjquqqqGXXWeXXauXXXVrZ5ddnZdddWxnl12wl111a2eXXaSXXXVrZ5ddrpdddWtnl12hspdddWxnl12drZ6XXXVobGeXXZ2tqpdddWxnl12drbKXXXVrZ5ddna2ul111bWeXXaOnl111l12XXWeXXauyrq6XXXVruF24Z12vtKugXXVdr6Czr124Z12vtKugXXVsb2ddpJ9ddW9nXaSppK+knKeEn111XW5vcHNycW9wc29ucXJucGxwcWtduJhnXaigr5xddba4uGddsaCtrqSqqV11bWddo6qur111XaikrappnqqoXbg=(/miro-data-v1)--&gt;&quot;&gt;&lt;/span&gt;&lt;div&gt;&lt;div&gt;&lt;strong&gt;#include &amp;lt;iostream&amp;gt; //I/O Console&lt;/strong&gt;&lt;/div&gt;&lt;div&gt;&lt;strong&gt;#include &amp;lt;fstream&amp;gt; &amp;nbsp;// I/O file handle&lt;/strong&gt;&lt;/div&gt;&lt;div&gt;&lt;strong&gt;#include &amp;lt;sstream&amp;gt;&amp;nbsp;// To use the stringstream class&lt;/strong&gt;&lt;/div&gt;&lt;div&gt;&lt;strong&gt;#include &amp;lt;vector&amp;gt; &amp;nbsp; //create vector variable&lt;/strong&gt;&lt;/div&gt;&lt;div&gt;&lt;strong&gt;#include &amp;lt;cstdio&amp;gt;&lt;/strong&gt;&lt;/div&gt;&lt;div&gt;&lt;strong&gt;#include &amp;lt;algorithm&amp;gt; //remove space b/w string&lt;/strong&gt;&lt;/div&gt;&lt;div&gt;&lt;strong&gt;#include &amp;lt;ctime&amp;gt; &amp;nbsp; &amp;nbsp; //for current time&lt;/strong&gt;&lt;/div&gt;&lt;div&gt;&lt;strong&gt;#include &amp;lt;cmath&amp;gt; //calculate maths problem&lt;/strong&gt;&lt;/div&gt;&lt;/div&gt;" style="text;whiteSpace=wrap;html=1;" parent="1" vertex="1">
          <mxGeometry x="510" y="152.5" width="300" height="125" as="geometry" />
        </mxCell>
        <mxCell id="ddLbTC-nwEFg6EeF6Wu0-5" style="edgeStyle=orthogonalEdgeStyle;rounded=0;orthogonalLoop=1;jettySize=auto;html=1;exitX=0.5;exitY=1;exitDx=0;exitDy=0;entryX=0.5;entryY=0;entryDx=0;entryDy=0;" parent="1" source="ddLbTC-nwEFg6EeF6Wu0-3" target="ddLbTC-nwEFg6EeF6Wu0-4" edge="1">
          <mxGeometry relative="1" as="geometry" />
        </mxCell>
        <mxCell id="ddLbTC-nwEFg6EeF6Wu0-3" value="&lt;font color=&quot;#ffffff&quot; data-font-src=&quot;https://fonts.googleapis.com/css?family=Graduate&quot; face=&quot;Graduate&quot; style=&quot;font-size: 24px;&quot;&gt;Start&lt;/font&gt;" style="ellipse;whiteSpace=wrap;html=1;fillColor=#77b937;" parent="1" vertex="1">
          <mxGeometry x="279" y="30" width="120" height="80" as="geometry" />
        </mxCell>
        <mxCell id="ddLbTC-nwEFg6EeF6Wu0-10" value="" style="edgeStyle=orthogonalEdgeStyle;rounded=0;orthogonalLoop=1;jettySize=auto;html=1;" parent="1" source="ddLbTC-nwEFg6EeF6Wu0-4" target="ddLbTC-nwEFg6EeF6Wu0-9" edge="1">
          <mxGeometry relative="1" as="geometry" />
        </mxCell>
        <mxCell id="ddLbTC-nwEFg6EeF6Wu0-4" value="&lt;font data-font-src=&quot;https://fonts.googleapis.com/css?family=Graduate&quot; face=&quot;Graduate&quot; style=&quot;font-size: 14px;&quot;&gt;&lt;b&gt;Read Files&lt;/b&gt;&lt;/font&gt;" style="shape=process;whiteSpace=wrap;html=1;backgroundOutline=1;rounded=1;" parent="1" vertex="1">
          <mxGeometry x="279" y="190" width="120" height="50" as="geometry" />
        </mxCell>
        <mxCell id="ddLbTC-nwEFg6EeF6Wu0-6" value="" style="shape=flexArrow;endArrow=classic;html=1;rounded=0;endWidth=34.03225806451613;endSize=6.5693548387096765;" parent="1" edge="1">
          <mxGeometry width="50" height="50" relative="1" as="geometry">
            <mxPoint x="420" y="214.41" as="sourcePoint" />
            <mxPoint x="490" y="214.41" as="targetPoint" />
            <Array as="points">
              <mxPoint x="440" y="214.41" />
            </Array>
          </mxGeometry>
        </mxCell>
        <mxCell id="MaH_vLUPBUV075BCTrU_-2" value="" style="edgeStyle=orthogonalEdgeStyle;rounded=0;orthogonalLoop=1;jettySize=auto;html=1;" edge="1" parent="1" source="ddLbTC-nwEFg6EeF6Wu0-9" target="MaH_vLUPBUV075BCTrU_-1">
          <mxGeometry relative="1" as="geometry" />
        </mxCell>
        <mxCell id="ddLbTC-nwEFg6EeF6Wu0-9" value="&lt;font data-font-src=&quot;https://fonts.googleapis.com/css?family=Graduate&quot; face=&quot;Graduate&quot; style=&quot;font-size: 18px;&quot;&gt;&lt;b&gt;Display main menu&lt;/b&gt;&lt;/font&gt;" style="whiteSpace=wrap;html=1;rounded=1;arcSize=0;" parent="1" vertex="1">
          <mxGeometry x="248.5" y="330" width="181" height="60" as="geometry" />
        </mxCell>
        <mxCell id="ddLbTC-nwEFg6EeF6Wu0-11" value="" style="shape=flexArrow;endArrow=classic;html=1;rounded=0;endWidth=34.03225806451613;endSize=6.5693548387096765;" parent="1" edge="1">
          <mxGeometry width="50" height="50" relative="1" as="geometry">
            <mxPoint x="450" y="359.28999999999996" as="sourcePoint" />
            <mxPoint x="520" y="359.28999999999996" as="targetPoint" />
            <Array as="points">
              <mxPoint x="470" y="359.28999999999996" />
            </Array>
          </mxGeometry>
        </mxCell>
        <mxCell id="ddLbTC-nwEFg6EeF6Wu0-12" value="&lt;h2 style=&quot;font-size: 20px;&quot;&gt;&lt;font face=&quot;Verdana&quot; style=&quot;font-size: 20px;&quot;&gt;&lt;font style=&quot;font-size: 20px;&quot;&gt;&amp;nbsp;1. Admin&lt;br&gt;&lt;/font&gt;&lt;font style=&quot;font-size: 20px;&quot;&gt;&amp;nbsp;2. User&lt;br&gt;&lt;/font&gt;&lt;font style=&quot;font-size: 20px;&quot;&gt;&amp;nbsp;3. Exit&lt;/font&gt;&lt;/font&gt;&lt;/h2&gt;" style="text;html=1;align=left;verticalAlign=middle;whiteSpace=wrap;rounded=1;strokeColor=default;perimeterSpacing=4;glass=0;shadow=0;fillColor=default;" parent="1" vertex="1">
          <mxGeometry x="530" y="310" width="130" height="100" as="geometry" />
        </mxCell>
        <mxCell id="MaH_vLUPBUV075BCTrU_-3" style="edgeStyle=orthogonalEdgeStyle;rounded=0;orthogonalLoop=1;jettySize=auto;html=1;exitX=0.5;exitY=1;exitDx=0;exitDy=0;entryX=0.5;entryY=0;entryDx=0;entryDy=0;" edge="1" parent="1" source="MaH_vLUPBUV075BCTrU_-1" target="MaH_vLUPBUV075BCTrU_-5">
          <mxGeometry relative="1" as="geometry">
            <mxPoint x="339" y="620" as="targetPoint" />
          </mxGeometry>
        </mxCell>
        <mxCell id="MaH_vLUPBUV075BCTrU_-4" value="&lt;font style=&quot;font-size: 38px;&quot;&gt;✔&lt;/font&gt;" style="edgeLabel;html=1;align=center;verticalAlign=middle;resizable=0;points=[];labelBackgroundColor=none;fontColor=#77B937;" vertex="1" connectable="0" parent="MaH_vLUPBUV075BCTrU_-3">
          <mxGeometry x="-0.3044" y="-1" relative="1" as="geometry">
            <mxPoint as="offset" />
          </mxGeometry>
        </mxCell>
        <mxCell id="MaH_vLUPBUV075BCTrU_-10" value="&lt;font style=&quot;font-size: 38px;&quot;&gt;✔&lt;/font&gt;" style="edgeLabel;html=1;align=center;verticalAlign=middle;resizable=0;points=[];labelBackgroundColor=none;fontColor=#77B937;" vertex="1" connectable="0" parent="MaH_vLUPBUV075BCTrU_-3">
          <mxGeometry x="-0.3044" y="-1" relative="1" as="geometry">
            <mxPoint x="2" y="303" as="offset" />
          </mxGeometry>
        </mxCell>
        <mxCell id="MaH_vLUPBUV075BCTrU_-20" value="&lt;font style=&quot;font-size: 38px;&quot;&gt;✔&lt;/font&gt;" style="edgeLabel;html=1;align=center;verticalAlign=middle;resizable=0;points=[];labelBackgroundColor=none;fontColor=#77B937;" vertex="1" connectable="0" parent="MaH_vLUPBUV075BCTrU_-3">
          <mxGeometry x="-0.3044" y="-1" relative="1" as="geometry">
            <mxPoint x="2" y="573" as="offset" />
          </mxGeometry>
        </mxCell>
        <mxCell id="MaH_vLUPBUV075BCTrU_-43" value="&lt;font style=&quot;font-size: 38px;&quot;&gt;✔&lt;/font&gt;" style="edgeLabel;html=1;align=center;verticalAlign=middle;resizable=0;points=[];labelBackgroundColor=none;fontColor=#77B937;" vertex="1" connectable="0" parent="MaH_vLUPBUV075BCTrU_-3">
          <mxGeometry x="-0.3044" y="-1" relative="1" as="geometry">
            <mxPoint x="2" y="1564" as="offset" />
          </mxGeometry>
        </mxCell>
        <mxCell id="MaH_vLUPBUV075BCTrU_-68" value="&lt;font style=&quot;font-size: 38px;&quot;&gt;✔&lt;/font&gt;" style="edgeLabel;html=1;align=center;verticalAlign=middle;resizable=0;points=[];labelBackgroundColor=none;fontColor=#77B937;" vertex="1" connectable="0" parent="MaH_vLUPBUV075BCTrU_-3">
          <mxGeometry x="-0.3044" y="-1" relative="1" as="geometry">
            <mxPoint x="2" y="1197" as="offset" />
          </mxGeometry>
        </mxCell>
        <mxCell id="MaH_vLUPBUV075BCTrU_-73" value="&lt;font style=&quot;font-size: 38px;&quot;&gt;✔&lt;/font&gt;" style="edgeLabel;html=1;align=center;verticalAlign=middle;resizable=0;points=[];labelBackgroundColor=none;fontColor=#77B937;" vertex="1" connectable="0" parent="MaH_vLUPBUV075BCTrU_-3">
          <mxGeometry x="-0.3044" y="-1" relative="1" as="geometry">
            <mxPoint x="2" y="2012" as="offset" />
          </mxGeometry>
        </mxCell>
        <mxCell id="MaH_vLUPBUV075BCTrU_-74" value="&lt;font style=&quot;font-size: 38px;&quot;&gt;✔&lt;/font&gt;" style="edgeLabel;html=1;align=center;verticalAlign=middle;resizable=0;points=[];labelBackgroundColor=none;fontColor=#77B937;" vertex="1" connectable="0" parent="MaH_vLUPBUV075BCTrU_-3">
          <mxGeometry x="-0.3044" y="-1" relative="1" as="geometry">
            <mxPoint x="2" y="2372" as="offset" />
          </mxGeometry>
        </mxCell>
        <mxCell id="MaH_vLUPBUV075BCTrU_-86" value="&lt;font style=&quot;font-size: 38px;&quot;&gt;✔&lt;/font&gt;" style="edgeLabel;html=1;align=center;verticalAlign=middle;resizable=0;points=[];labelBackgroundColor=none;fontColor=#77B937;" vertex="1" connectable="0" parent="MaH_vLUPBUV075BCTrU_-3">
          <mxGeometry x="-0.3044" y="-1" relative="1" as="geometry">
            <mxPoint x="12" y="3102" as="offset" />
          </mxGeometry>
        </mxCell>
        <mxCell id="MaH_vLUPBUV075BCTrU_-93" value="&lt;font style=&quot;font-size: 38px;&quot;&gt;✔&lt;/font&gt;" style="edgeLabel;html=1;align=center;verticalAlign=middle;resizable=0;points=[];labelBackgroundColor=none;fontColor=#77B937;" vertex="1" connectable="0" parent="MaH_vLUPBUV075BCTrU_-3">
          <mxGeometry x="-0.3044" y="-1" relative="1" as="geometry">
            <mxPoint x="12" y="3372" as="offset" />
          </mxGeometry>
        </mxCell>
        <mxCell id="MaH_vLUPBUV075BCTrU_-1" value="if choice==1" style="rhombus;whiteSpace=wrap;html=1;rounded=1;arcSize=0;" vertex="1" parent="1">
          <mxGeometry x="263.5" y="460" width="151" height="80" as="geometry" />
        </mxCell>
        <mxCell id="MaH_vLUPBUV075BCTrU_-7" value="" style="edgeStyle=orthogonalEdgeStyle;rounded=0;orthogonalLoop=1;jettySize=auto;html=1;" edge="1" parent="1" source="MaH_vLUPBUV075BCTrU_-5" target="MaH_vLUPBUV075BCTrU_-6">
          <mxGeometry relative="1" as="geometry" />
        </mxCell>
        <mxCell id="MaH_vLUPBUV075BCTrU_-5" value="Input username &amp;amp; password" style="shape=parallelogram;perimeter=parallelogramPerimeter;whiteSpace=wrap;html=1;fixedSize=1;" vertex="1" parent="1">
          <mxGeometry x="269.5" y="620" width="139" height="70" as="geometry" />
        </mxCell>
        <mxCell id="MaH_vLUPBUV075BCTrU_-9" style="edgeStyle=orthogonalEdgeStyle;rounded=0;orthogonalLoop=1;jettySize=auto;html=1;exitX=0.5;exitY=1;exitDx=0;exitDy=0;entryX=0.5;entryY=0;entryDx=0;entryDy=0;" edge="1" parent="1" source="MaH_vLUPBUV075BCTrU_-6" target="MaH_vLUPBUV075BCTrU_-8">
          <mxGeometry relative="1" as="geometry" />
        </mxCell>
        <mxCell id="MaH_vLUPBUV075BCTrU_-13" style="edgeStyle=orthogonalEdgeStyle;rounded=0;orthogonalLoop=1;jettySize=auto;html=1;exitX=0;exitY=0.5;exitDx=0;exitDy=0;entryX=0;entryY=0.5;entryDx=0;entryDy=0;" edge="1" parent="1" source="MaH_vLUPBUV075BCTrU_-6" target="MaH_vLUPBUV075BCTrU_-5">
          <mxGeometry relative="1" as="geometry">
            <mxPoint x="242.5" y="800" as="sourcePoint" />
            <mxPoint x="263.5" y="655" as="targetPoint" />
            <Array as="points">
              <mxPoint x="200" y="800" />
              <mxPoint x="200" y="655" />
            </Array>
          </mxGeometry>
        </mxCell>
        <mxCell id="MaH_vLUPBUV075BCTrU_-14" value="&lt;font style=&quot;font-size: 23px;&quot;&gt;❌&lt;/font&gt;" style="edgeLabel;html=1;align=center;verticalAlign=middle;resizable=0;points=[];fontColor=#000000;labelBackgroundColor=none;" vertex="1" connectable="0" parent="MaH_vLUPBUV075BCTrU_-13">
          <mxGeometry x="0.0065" relative="1" as="geometry">
            <mxPoint as="offset" />
          </mxGeometry>
        </mxCell>
        <mxCell id="MaH_vLUPBUV075BCTrU_-34" value="&lt;font style=&quot;font-size: 23px;&quot;&gt;❌&lt;/font&gt;" style="edgeLabel;html=1;align=center;verticalAlign=middle;resizable=0;points=[];fontColor=#000000;labelBackgroundColor=none;" vertex="1" connectable="0" parent="MaH_vLUPBUV075BCTrU_-13">
          <mxGeometry x="0.0065" relative="1" as="geometry">
            <mxPoint x="40" y="334" as="offset" />
          </mxGeometry>
        </mxCell>
        <mxCell id="MaH_vLUPBUV075BCTrU_-46" value="&lt;font style=&quot;font-size: 23px;&quot;&gt;❌&lt;/font&gt;" style="edgeLabel;html=1;align=center;verticalAlign=middle;resizable=0;points=[];fontColor=#000000;labelBackgroundColor=none;" vertex="1" connectable="0" parent="MaH_vLUPBUV075BCTrU_-13">
          <mxGeometry x="0.0065" relative="1" as="geometry">
            <mxPoint x="60" y="1356" as="offset" />
          </mxGeometry>
        </mxCell>
        <mxCell id="MaH_vLUPBUV075BCTrU_-67" value="&lt;font style=&quot;font-size: 23px;&quot;&gt;❌&lt;/font&gt;" style="edgeLabel;html=1;align=center;verticalAlign=middle;resizable=0;points=[];fontColor=#000000;labelBackgroundColor=none;" vertex="1" connectable="0" parent="MaH_vLUPBUV075BCTrU_-13">
          <mxGeometry x="0.0065" relative="1" as="geometry">
            <mxPoint x="40" y="994" as="offset" />
          </mxGeometry>
        </mxCell>
        <mxCell id="MaH_vLUPBUV075BCTrU_-82" value="&lt;font style=&quot;font-size: 23px;&quot;&gt;❌&lt;/font&gt;" style="edgeLabel;html=1;align=center;verticalAlign=middle;resizable=0;points=[];fontColor=#000000;labelBackgroundColor=none;" vertex="1" connectable="0" parent="MaH_vLUPBUV075BCTrU_-13">
          <mxGeometry x="0.0065" relative="1" as="geometry">
            <mxPoint x="70" y="2154" as="offset" />
          </mxGeometry>
        </mxCell>
        <mxCell id="MaH_vLUPBUV075BCTrU_-85" value="&lt;font style=&quot;font-size: 23px;&quot;&gt;❌&lt;/font&gt;" style="edgeLabel;html=1;align=center;verticalAlign=middle;resizable=0;points=[];fontColor=#000000;labelBackgroundColor=none;" vertex="1" connectable="0" parent="MaH_vLUPBUV075BCTrU_-13">
          <mxGeometry x="0.0065" relative="1" as="geometry">
            <mxPoint x="50" y="1794" as="offset" />
          </mxGeometry>
        </mxCell>
        <mxCell id="MaH_vLUPBUV075BCTrU_-6" value="if username&amp;nbsp;&lt;div&gt;&amp;amp;&amp;nbsp;&lt;/div&gt;&lt;div&gt;password == true&lt;/div&gt;" style="rhombus;whiteSpace=wrap;html=1;" vertex="1" parent="1">
          <mxGeometry x="258.5" y="760" width="161.5" height="80" as="geometry" />
        </mxCell>
        <mxCell id="MaH_vLUPBUV075BCTrU_-16" value="" style="edgeStyle=orthogonalEdgeStyle;rounded=0;orthogonalLoop=1;jettySize=auto;html=1;" edge="1" parent="1" source="MaH_vLUPBUV075BCTrU_-8" target="MaH_vLUPBUV075BCTrU_-15">
          <mxGeometry relative="1" as="geometry" />
        </mxCell>
        <mxCell id="MaH_vLUPBUV075BCTrU_-8" value="&lt;font data-font-src=&quot;https://fonts.googleapis.com/css?family=Graduate&quot; face=&quot;Graduate&quot; style=&quot;font-size: 18px;&quot;&gt;&lt;b&gt;Display menu&lt;/b&gt;&lt;/font&gt;" style="whiteSpace=wrap;html=1;rounded=1;arcSize=0;" vertex="1" parent="1">
          <mxGeometry x="248.75" y="920" width="181" height="60" as="geometry" />
        </mxCell>
        <mxCell id="MaH_vLUPBUV075BCTrU_-11" value="1. Create New Account&#xa;2. Search Account&#xa;3. Update Detail&#xa;4. Transact&#xa;5. Delete Account&#xa;6. See All Data&#xa;7. Apply Loan&#xa;0. Exit" style="text;whiteSpace=wrap;" vertex="1" parent="1">
          <mxGeometry x="520" y="880" width="160" height="130" as="geometry" />
        </mxCell>
        <mxCell id="MaH_vLUPBUV075BCTrU_-12" value="" style="shape=flexArrow;endArrow=classic;html=1;rounded=0;endWidth=34.03225806451613;endSize=6.5693548387096765;" edge="1" parent="1">
          <mxGeometry width="50" height="50" relative="1" as="geometry">
            <mxPoint x="440" y="949.7199999999999" as="sourcePoint" />
            <mxPoint x="510" y="949.7199999999999" as="targetPoint" />
            <Array as="points">
              <mxPoint x="460" y="949.7199999999999" />
            </Array>
          </mxGeometry>
        </mxCell>
        <mxCell id="MaH_vLUPBUV075BCTrU_-18" value="" style="edgeStyle=orthogonalEdgeStyle;rounded=0;orthogonalLoop=1;jettySize=auto;html=1;" edge="1" parent="1" source="MaH_vLUPBUV075BCTrU_-15" target="MaH_vLUPBUV075BCTrU_-17">
          <mxGeometry relative="1" as="geometry" />
        </mxCell>
        <mxCell id="MaH_vLUPBUV075BCTrU_-15" value="if choice == 1" style="rhombus;whiteSpace=wrap;html=1;rounded=1;arcSize=0;" vertex="1" parent="1">
          <mxGeometry x="269.5" y="1010" width="140.75" height="80" as="geometry" />
        </mxCell>
        <mxCell id="MaH_vLUPBUV075BCTrU_-22" style="edgeStyle=orthogonalEdgeStyle;rounded=0;orthogonalLoop=1;jettySize=auto;html=1;exitX=0.5;exitY=1;exitDx=0;exitDy=0;" edge="1" parent="1" source="MaH_vLUPBUV075BCTrU_-17" target="MaH_vLUPBUV075BCTrU_-21">
          <mxGeometry relative="1" as="geometry" />
        </mxCell>
        <mxCell id="MaH_vLUPBUV075BCTrU_-17" value="&lt;font style=&quot;font-size: 14px;&quot;&gt;Call create new account function&lt;/font&gt;" style="whiteSpace=wrap;html=1;rounded=1;arcSize=0;" vertex="1" parent="1">
          <mxGeometry x="279.875" y="1200" width="120" height="60" as="geometry" />
        </mxCell>
        <mxCell id="MaH_vLUPBUV075BCTrU_-26" style="edgeStyle=orthogonalEdgeStyle;rounded=0;orthogonalLoop=1;jettySize=auto;html=1;exitX=0.5;exitY=1;exitDx=0;exitDy=0;entryX=0.5;entryY=0;entryDx=0;entryDy=0;" edge="1" parent="1" source="MaH_vLUPBUV075BCTrU_-21" target="MaH_vLUPBUV075BCTrU_-25">
          <mxGeometry relative="1" as="geometry" />
        </mxCell>
        <mxCell id="MaH_vLUPBUV075BCTrU_-21" value="Inpute basic&lt;div&gt;details&lt;/div&gt;" style="shape=parallelogram;perimeter=parallelogramPerimeter;whiteSpace=wrap;html=1;fixedSize=1;" vertex="1" parent="1">
          <mxGeometry x="279" y="1310" width="120" height="60" as="geometry" />
        </mxCell>
        <mxCell id="MaH_vLUPBUV075BCTrU_-23" value="" style="shape=flexArrow;endArrow=classic;html=1;rounded=0;endWidth=34.03225806451613;endSize=6.5693548387096765;" edge="1" parent="1">
          <mxGeometry width="50" height="50" relative="1" as="geometry">
            <mxPoint x="440" y="1339.5799999999997" as="sourcePoint" />
            <mxPoint x="510" y="1339.5799999999997" as="targetPoint" />
            <Array as="points">
              <mxPoint x="460" y="1339.5799999999997" />
            </Array>
          </mxGeometry>
        </mxCell>
        <mxCell id="MaH_vLUPBUV075BCTrU_-24" value="&lt;div&gt;&lt;b&gt;&lt;span style=&quot;white-space: pre;&quot;&gt;&#x9;&lt;/span&gt;&lt;font style=&quot;font-size: 19px;&quot;&gt;Basic Details&lt;/font&gt;&lt;/b&gt;&lt;/div&gt;&lt;ol&gt;&lt;li data-list=&quot;ordered&quot;&gt;&lt;strong&gt;Name&lt;/strong&gt;&lt;/li&gt;&lt;li data-list=&quot;ordered&quot;&gt;&lt;strong&gt;DOB&lt;/strong&gt;&lt;/li&gt;&lt;li data-list=&quot;ordered&quot;&gt;&lt;strong&gt;Contact No.&lt;/strong&gt;&lt;/li&gt;&lt;li data-list=&quot;ordered&quot;&gt;&lt;strong&gt;Email id&lt;/strong&gt;&lt;/li&gt;&lt;li data-list=&quot;ordered&quot;&gt;&lt;strong&gt;Documents (Options)&lt;/strong&gt;&lt;/li&gt;&lt;ul&gt;&lt;li data-list=&quot;bullet&quot; class=&quot;ql-indent-1&quot;&gt;&lt;strong&gt;PAN card&lt;/strong&gt;&lt;/li&gt;&lt;li data-list=&quot;bullet&quot; class=&quot;ql-indent-1&quot;&gt;&lt;strong&gt;Passport&lt;/strong&gt;&lt;/li&gt;&lt;li data-list=&quot;bullet&quot; class=&quot;ql-indent-1&quot;&gt;&lt;strong&gt;Driving License&lt;/strong&gt;&lt;/li&gt;&lt;li data-list=&quot;bullet&quot; class=&quot;ql-indent-1&quot;&gt;&lt;strong&gt;Voter’s ID&lt;/strong&gt;&lt;/li&gt;&lt;li data-list=&quot;bullet&quot; class=&quot;ql-indent-1&quot;&gt;&lt;strong&gt;Ration Card&lt;/strong&gt;&lt;/li&gt;&lt;li data-list=&quot;bullet&quot; class=&quot;ql-indent-1&quot;&gt;&lt;strong&gt;Aadhaar card&lt;/strong&gt;&lt;/li&gt;&lt;/ul&gt;&lt;li data-list=&quot;ordered&quot;&gt;&lt;strong&gt;Document no.&lt;/strong&gt;&lt;/li&gt;&lt;li data-list=&quot;ordered&quot;&gt;&lt;strong&gt;Citizenship.&lt;/strong&gt;&lt;/li&gt;&lt;li data-list=&quot;ordered&quot;&gt;&lt;strong&gt;Address&lt;/strong&gt;&lt;/li&gt;&lt;ol&gt;&lt;li data-list=&quot;ordered&quot; class=&quot;ql-indent-1&quot;&gt;&lt;strong&gt;Line 1.&lt;/strong&gt;&lt;/li&gt;&lt;li data-list=&quot;ordered&quot; class=&quot;ql-indent-1&quot;&gt;&lt;strong&gt;Line 2.&lt;/strong&gt;&lt;/li&gt;&lt;li data-list=&quot;ordered&quot; class=&quot;ql-indent-1&quot;&gt;&lt;strong&gt;City&lt;/strong&gt;&lt;/li&gt;&lt;li data-list=&quot;ordered&quot; class=&quot;ql-indent-1&quot;&gt;&lt;strong&gt;state.&lt;/strong&gt;&lt;/li&gt;&lt;li data-list=&quot;ordered&quot; class=&quot;ql-indent-1&quot;&gt;&lt;strong&gt;Pin code&lt;/strong&gt;&lt;/li&gt;&lt;/ol&gt;&lt;li data-list=&quot;ordered&quot;&gt;&lt;strong&gt;Occupation&lt;/strong&gt;&lt;/li&gt;&lt;li data-list=&quot;ordered&quot;&gt;&lt;strong&gt;Nominee Name&lt;/strong&gt;&lt;/li&gt;&lt;li data-list=&quot;ordered&quot;&gt;&lt;strong&gt;Nominee DOB&lt;/strong&gt;&lt;/li&gt;&lt;li data-list=&quot;ordered&quot;&gt;&lt;strong&gt;Nominee relation&lt;/strong&gt;&lt;/li&gt;&lt;li data-list=&quot;ordered&quot;&gt;&lt;strong&gt;Type of Account&lt;/strong&gt;&lt;/li&gt;&lt;ol&gt;&lt;li data-list=&quot;ordered&quot; class=&quot;ql-indent-1&quot;&gt;&lt;strong&gt;Saving Account&lt;/strong&gt;&lt;/li&gt;&lt;li data-list=&quot;ordered&quot; class=&quot;ql-indent-1&quot;&gt;&lt;strong&gt;Current Account&lt;/strong&gt;&lt;/li&gt;&lt;/ol&gt;&lt;/ol&gt;" style="text;whiteSpace=wrap;html=1;" vertex="1" parent="1">
          <mxGeometry x="510" y="1130" width="210" height="420" as="geometry" />
        </mxCell>
        <mxCell id="MaH_vLUPBUV075BCTrU_-30" style="edgeStyle=orthogonalEdgeStyle;rounded=0;orthogonalLoop=1;jettySize=auto;html=1;exitX=0.5;exitY=1;exitDx=0;exitDy=0;entryX=0.5;entryY=0;entryDx=0;entryDy=0;" edge="1" parent="1" source="MaH_vLUPBUV075BCTrU_-25" target="MaH_vLUPBUV075BCTrU_-29">
          <mxGeometry relative="1" as="geometry" />
        </mxCell>
        <mxCell id="MaH_vLUPBUV075BCTrU_-25" value="SVG" style="shape=datastore;whiteSpace=wrap;html=1;" vertex="1" parent="1">
          <mxGeometry x="309" y="1420" width="60" height="60" as="geometry" />
        </mxCell>
        <mxCell id="MaH_vLUPBUV075BCTrU_-31" style="edgeStyle=orthogonalEdgeStyle;rounded=0;orthogonalLoop=1;jettySize=auto;html=1;exitX=0;exitY=0.5;exitDx=0;exitDy=0;entryX=0.007;entryY=0.5;entryDx=0;entryDy=0;entryPerimeter=0;" edge="1" parent="1" source="MaH_vLUPBUV075BCTrU_-29" target="MaH_vLUPBUV075BCTrU_-8">
          <mxGeometry relative="1" as="geometry">
            <mxPoint x="241.43000000000006" y="1565" as="sourcePoint" />
            <mxPoint x="238.75" y="950" as="targetPoint" />
            <Array as="points">
              <mxPoint x="200" y="1565" />
              <mxPoint x="200" y="950" />
            </Array>
          </mxGeometry>
        </mxCell>
        <mxCell id="MaH_vLUPBUV075BCTrU_-29" value="&lt;div style=&quot;&quot;&gt;&lt;span style=&quot;background-color: initial;&quot;&gt;&lt;b&gt;Display&amp;nbsp;&lt;/b&gt;&lt;/span&gt;&lt;/div&gt;&lt;div style=&quot;&quot;&gt;&lt;span style=&quot;background-color: initial;&quot;&gt;Account No.&lt;/span&gt;&lt;/div&gt;&lt;div&gt;&lt;span style=&quot;background-color: initial;&quot;&gt;Customer no.&lt;/span&gt;&lt;/div&gt;&lt;div&gt;&lt;span style=&quot;background-color: initial;&quot;&gt;Ifsc code&lt;/span&gt;&lt;/div&gt;&lt;div&gt;&lt;span style=&quot;background-color: initial;&quot;&gt;Balace&lt;/span&gt;&lt;/div&gt;" style="shape=parallelogram;perimeter=parallelogramPerimeter;whiteSpace=wrap;html=1;fixedSize=1;align=center;" vertex="1" parent="1">
          <mxGeometry x="241.43" y="1520" width="195.63" height="90" as="geometry" />
        </mxCell>
        <mxCell id="MaH_vLUPBUV075BCTrU_-36" style="edgeStyle=orthogonalEdgeStyle;rounded=0;orthogonalLoop=1;jettySize=auto;html=1;exitX=0.5;exitY=1;exitDx=0;exitDy=0;entryX=0.5;entryY=0;entryDx=0;entryDy=0;" edge="1" parent="1" source="MaH_vLUPBUV075BCTrU_-32" target="MaH_vLUPBUV075BCTrU_-52">
          <mxGeometry relative="1" as="geometry" />
        </mxCell>
        <mxCell id="MaH_vLUPBUV075BCTrU_-32" value="if choice == 2" style="rhombus;whiteSpace=wrap;html=1;rounded=1;arcSize=0;" vertex="1" parent="1">
          <mxGeometry x="268.63" y="1670" width="140.75" height="80" as="geometry" />
        </mxCell>
        <mxCell id="MaH_vLUPBUV075BCTrU_-33" value="" style="edgeStyle=orthogonalEdgeStyle;rounded=0;orthogonalLoop=1;jettySize=auto;html=1;jumpStyle=arc;jumpSize=20;noJump=0;ignoreEdge=0;flowAnimation=0;shadow=0;entryX=0.5;entryY=0;entryDx=0;entryDy=0;" edge="1" parent="1" source="MaH_vLUPBUV075BCTrU_-15" target="MaH_vLUPBUV075BCTrU_-32">
          <mxGeometry relative="1" as="geometry">
            <Array as="points">
              <mxPoint x="160" y="1050" />
              <mxPoint x="160" y="1640" />
              <mxPoint x="339" y="1640" />
            </Array>
          </mxGeometry>
        </mxCell>
        <mxCell id="MaH_vLUPBUV075BCTrU_-40" value="" style="edgeStyle=orthogonalEdgeStyle;rounded=0;orthogonalLoop=1;jettySize=auto;html=1;" edge="1" parent="1" source="MaH_vLUPBUV075BCTrU_-35" target="MaH_vLUPBUV075BCTrU_-39">
          <mxGeometry relative="1" as="geometry" />
        </mxCell>
        <mxCell id="MaH_vLUPBUV075BCTrU_-35" value="Input user details to&lt;div&gt;search Data&lt;/div&gt;" style="shape=parallelogram;perimeter=parallelogramPerimeter;whiteSpace=wrap;html=1;fixedSize=1;" vertex="1" parent="1">
          <mxGeometry x="269.74" y="1892" width="139" height="70" as="geometry" />
        </mxCell>
        <mxCell id="MaH_vLUPBUV075BCTrU_-37" value="" style="shape=flexArrow;endArrow=classic;html=1;rounded=0;endWidth=34.03225806451613;endSize=6.5693548387096765;" edge="1" parent="1">
          <mxGeometry width="50" height="50" relative="1" as="geometry">
            <mxPoint x="437.06" y="1931.5999999999997" as="sourcePoint" />
            <mxPoint x="507.06" y="1931.5999999999997" as="targetPoint" />
            <Array as="points">
              <mxPoint x="457.06" y="1931.5999999999997" />
            </Array>
          </mxGeometry>
        </mxCell>
        <mxCell id="MaH_vLUPBUV075BCTrU_-38" value="&lt;div&gt;&lt;b&gt;&lt;font style=&quot;font-size: 19px;&quot;&gt;User Details&lt;/font&gt;&lt;/b&gt;&lt;/div&gt;&lt;div&gt;&lt;b style=&quot;background-color: initial;&quot;&gt;Account No. &lt;/b&gt;&lt;span style=&quot;background-color: initial;&quot;&gt;or&amp;nbsp;&lt;/span&gt;&lt;/div&gt;&lt;div&gt;&lt;b style=&quot;background-color: initial;&quot;&gt;Customer no. &lt;/b&gt;&lt;span style=&quot;background-color: initial;&quot;&gt;or&amp;nbsp;&lt;/span&gt;&lt;/div&gt;&lt;div&gt;&lt;b style=&quot;background-color: initial;&quot;&gt;Document no. &lt;/b&gt;&lt;span style=&quot;background-color: initial;&quot;&gt;&amp;amp;&amp;nbsp;&lt;/span&gt;&lt;/div&gt;&lt;div&gt;&lt;b style=&quot;background-color: initial;&quot;&gt;Date of Birth&lt;/b&gt;&lt;/div&gt;" style="text;whiteSpace=wrap;html=1;" vertex="1" parent="1">
          <mxGeometry x="520" y="1882" width="120" height="90" as="geometry" />
        </mxCell>
        <mxCell id="MaH_vLUPBUV075BCTrU_-42" style="edgeStyle=orthogonalEdgeStyle;rounded=0;orthogonalLoop=1;jettySize=auto;html=1;exitX=0.5;exitY=1;exitDx=0;exitDy=0;entryX=0.5;entryY=0;entryDx=0;entryDy=0;" edge="1" parent="1" source="MaH_vLUPBUV075BCTrU_-39" target="MaH_vLUPBUV075BCTrU_-41">
          <mxGeometry relative="1" as="geometry" />
        </mxCell>
        <mxCell id="MaH_vLUPBUV075BCTrU_-39" value="if details" style="rhombus;whiteSpace=wrap;html=1;" vertex="1" parent="1">
          <mxGeometry x="293.37" y="2037" width="91.76" height="65" as="geometry" />
        </mxCell>
        <mxCell id="MaH_vLUPBUV075BCTrU_-44" style="edgeStyle=orthogonalEdgeStyle;rounded=0;orthogonalLoop=1;jettySize=auto;html=1;exitX=0;exitY=0.5;exitDx=0;exitDy=0;" edge="1" parent="1" source="MaH_vLUPBUV075BCTrU_-41">
          <mxGeometry relative="1" as="geometry">
            <mxPoint x="200" y="1560" as="targetPoint" />
          </mxGeometry>
        </mxCell>
        <mxCell id="MaH_vLUPBUV075BCTrU_-41" value="&lt;div style=&quot;&quot;&gt;&lt;span style=&quot;background-color: initial;&quot;&gt;&lt;b&gt;Display Account details&lt;/b&gt;&lt;/span&gt;&lt;/div&gt;" style="shape=parallelogram;perimeter=parallelogramPerimeter;whiteSpace=wrap;html=1;fixedSize=1;align=center;" vertex="1" parent="1">
          <mxGeometry x="244.59" y="2182" width="188.82" height="40" as="geometry" />
        </mxCell>
        <mxCell id="MaH_vLUPBUV075BCTrU_-48" value="" style="edgeStyle=orthogonalEdgeStyle;rounded=0;orthogonalLoop=1;jettySize=auto;html=1;exitX=0;exitY=0.5;exitDx=0;exitDy=0;jumpStyle=arc;jumpSize=20;" edge="1" parent="1" source="MaH_vLUPBUV075BCTrU_-39" target="MaH_vLUPBUV075BCTrU_-47">
          <mxGeometry relative="1" as="geometry">
            <mxPoint x="340" y="2342" as="targetPoint" />
            <mxPoint x="293" y="2070" as="sourcePoint" />
            <Array as="points">
              <mxPoint x="170" y="2070" />
              <mxPoint x="170" y="2272" />
              <mxPoint x="343" y="2272" />
            </Array>
          </mxGeometry>
        </mxCell>
        <mxCell id="MaH_vLUPBUV075BCTrU_-49" style="edgeStyle=orthogonalEdgeStyle;rounded=0;orthogonalLoop=1;jettySize=auto;html=1;exitX=0;exitY=0.5;exitDx=0;exitDy=0;jumpStyle=arc;jumpSize=20;" edge="1" parent="1" source="MaH_vLUPBUV075BCTrU_-47">
          <mxGeometry relative="1" as="geometry">
            <mxPoint x="200" y="2190" as="targetPoint" />
          </mxGeometry>
        </mxCell>
        <mxCell id="MaH_vLUPBUV075BCTrU_-47" value="&lt;div style=&quot;&quot;&gt;&lt;span style=&quot;background-color: initial;&quot;&gt;&lt;b&gt;Show message&amp;nbsp;&lt;/b&gt;&lt;/span&gt;&lt;/div&gt;&lt;div style=&quot;&quot;&gt;&lt;span style=&quot;background-color: initial;&quot;&gt;&lt;b&gt;&quot;Details not found!!&quot;&lt;/b&gt;&lt;/span&gt;&lt;/div&gt;&lt;div style=&quot;&quot;&gt;&lt;span style=&quot;background-color: initial;&quot;&gt;&lt;b&gt;&quot;Enter Right Details&quot;&lt;/b&gt;&lt;/span&gt;&lt;/div&gt;" style="shape=parallelogram;perimeter=parallelogramPerimeter;whiteSpace=wrap;html=1;fixedSize=1;align=center;" vertex="1" parent="1">
          <mxGeometry x="248.75" y="2370" width="188.82" height="40" as="geometry" />
        </mxCell>
        <mxCell id="MaH_vLUPBUV075BCTrU_-55" style="edgeStyle=orthogonalEdgeStyle;rounded=0;orthogonalLoop=1;jettySize=auto;html=1;exitX=0.5;exitY=1;exitDx=0;exitDy=0;entryX=0.5;entryY=0;entryDx=0;entryDy=0;" edge="1" parent="1" source="MaH_vLUPBUV075BCTrU_-50" target="MaH_vLUPBUV075BCTrU_-54">
          <mxGeometry relative="1" as="geometry" />
        </mxCell>
        <mxCell id="MaH_vLUPBUV075BCTrU_-50" value="if choice == 3" style="rhombus;whiteSpace=wrap;html=1;rounded=1;arcSize=0;" vertex="1" parent="1">
          <mxGeometry x="273.75" y="2470" width="140.75" height="80" as="geometry" />
        </mxCell>
        <mxCell id="MaH_vLUPBUV075BCTrU_-51" style="edgeStyle=orthogonalEdgeStyle;rounded=0;orthogonalLoop=1;jettySize=auto;html=1;exitX=0;exitY=0.5;exitDx=0;exitDy=0;entryX=0.5;entryY=0;entryDx=0;entryDy=0;jumpStyle=arc;jumpSize=20;" edge="1" parent="1" source="MaH_vLUPBUV075BCTrU_-32" target="MaH_vLUPBUV075BCTrU_-50">
          <mxGeometry relative="1" as="geometry">
            <Array as="points">
              <mxPoint x="150" y="1710" />
              <mxPoint x="150" y="2440" />
              <mxPoint x="344" y="2440" />
            </Array>
          </mxGeometry>
        </mxCell>
        <mxCell id="MaH_vLUPBUV075BCTrU_-53" style="edgeStyle=orthogonalEdgeStyle;rounded=0;orthogonalLoop=1;jettySize=auto;html=1;exitX=0.5;exitY=1;exitDx=0;exitDy=0;entryX=0.5;entryY=0;entryDx=0;entryDy=0;" edge="1" parent="1" source="MaH_vLUPBUV075BCTrU_-52" target="MaH_vLUPBUV075BCTrU_-35">
          <mxGeometry relative="1" as="geometry" />
        </mxCell>
        <mxCell id="MaH_vLUPBUV075BCTrU_-52" value="&lt;font style=&quot;font-size: 14px;&quot;&gt;Call Search Details function&lt;/font&gt;" style="whiteSpace=wrap;html=1;rounded=1;arcSize=0;" vertex="1" parent="1">
          <mxGeometry x="279.005" y="1801" width="120" height="60" as="geometry" />
        </mxCell>
        <mxCell id="MaH_vLUPBUV075BCTrU_-58" value="" style="edgeStyle=orthogonalEdgeStyle;rounded=0;orthogonalLoop=1;jettySize=auto;html=1;entryX=0.5;entryY=0;entryDx=0;entryDy=0;" edge="1" parent="1" source="MaH_vLUPBUV075BCTrU_-54" target="MaH_vLUPBUV075BCTrU_-59">
          <mxGeometry relative="1" as="geometry" />
        </mxCell>
        <mxCell id="MaH_vLUPBUV075BCTrU_-54" value="&lt;font style=&quot;font-size: 14px;&quot;&gt;Call Update Details function&lt;/font&gt;" style="whiteSpace=wrap;html=1;rounded=1;arcSize=0;" vertex="1" parent="1">
          <mxGeometry x="283.16499999999996" y="2610" width="120" height="60" as="geometry" />
        </mxCell>
        <mxCell id="MaH_vLUPBUV075BCTrU_-64" value="" style="edgeStyle=orthogonalEdgeStyle;rounded=0;orthogonalLoop=1;jettySize=auto;html=1;" edge="1" parent="1" source="MaH_vLUPBUV075BCTrU_-57" target="MaH_vLUPBUV075BCTrU_-63">
          <mxGeometry relative="1" as="geometry" />
        </mxCell>
        <mxCell id="MaH_vLUPBUV075BCTrU_-57" value="if details" style="rhombus;whiteSpace=wrap;html=1;rounded=1;arcSize=0;" vertex="1" parent="1">
          <mxGeometry x="290.70000000000005" y="2830" width="106.84" height="80" as="geometry" />
        </mxCell>
        <mxCell id="MaH_vLUPBUV075BCTrU_-60" style="edgeStyle=orthogonalEdgeStyle;rounded=0;orthogonalLoop=1;jettySize=auto;html=1;exitX=0.5;exitY=1;exitDx=0;exitDy=0;entryX=0.5;entryY=0;entryDx=0;entryDy=0;" edge="1" parent="1" source="MaH_vLUPBUV075BCTrU_-59" target="MaH_vLUPBUV075BCTrU_-57">
          <mxGeometry relative="1" as="geometry" />
        </mxCell>
        <mxCell id="MaH_vLUPBUV075BCTrU_-59" value="Input user details for validation" style="shape=parallelogram;perimeter=parallelogramPerimeter;whiteSpace=wrap;html=1;fixedSize=1;" vertex="1" parent="1">
          <mxGeometry x="273.75" y="2715" width="139" height="70" as="geometry" />
        </mxCell>
        <mxCell id="MaH_vLUPBUV075BCTrU_-61" value="&lt;div&gt;&lt;b&gt;&lt;font style=&quot;font-size: 19px;&quot;&gt;User Details&lt;/font&gt;&lt;/b&gt;&lt;/div&gt;&lt;div&gt;&lt;b style=&quot;background-color: initial;&quot;&gt;Account No. &lt;/b&gt;&lt;span style=&quot;background-color: initial;&quot;&gt;or&amp;nbsp;&lt;/span&gt;&lt;/div&gt;&lt;div&gt;&lt;b style=&quot;background-color: initial;&quot;&gt;Customer no. &lt;/b&gt;&lt;span style=&quot;background-color: initial;&quot;&gt;or&amp;nbsp;&lt;/span&gt;&lt;/div&gt;&lt;div&gt;&lt;b style=&quot;background-color: initial;&quot;&gt;Document no. &lt;/b&gt;&lt;span style=&quot;background-color: initial;&quot;&gt;&amp;amp;&amp;nbsp;&lt;/span&gt;&lt;/div&gt;&lt;div&gt;&lt;b style=&quot;background-color: initial;&quot;&gt;Date of Birth&lt;/b&gt;&lt;/div&gt;" style="text;whiteSpace=wrap;html=1;" vertex="1" parent="1">
          <mxGeometry x="520" y="2705" width="120" height="90" as="geometry" />
        </mxCell>
        <mxCell id="MaH_vLUPBUV075BCTrU_-62" value="" style="shape=flexArrow;endArrow=classic;html=1;rounded=0;endWidth=34.03225806451613;endSize=6.5693548387096765;" edge="1" parent="1">
          <mxGeometry width="50" height="50" relative="1" as="geometry">
            <mxPoint x="440" y="2749.9999999999995" as="sourcePoint" />
            <mxPoint x="509.99999999999994" y="2749.9999999999995" as="targetPoint" />
            <Array as="points">
              <mxPoint x="460" y="2749.9999999999995" />
            </Array>
          </mxGeometry>
        </mxCell>
        <mxCell id="MaH_vLUPBUV075BCTrU_-70" style="edgeStyle=orthogonalEdgeStyle;rounded=0;orthogonalLoop=1;jettySize=auto;html=1;exitX=0.5;exitY=1;exitDx=0;exitDy=0;entryX=0.5;entryY=0;entryDx=0;entryDy=0;" edge="1" parent="1" source="MaH_vLUPBUV075BCTrU_-63" target="MaH_vLUPBUV075BCTrU_-69">
          <mxGeometry relative="1" as="geometry" />
        </mxCell>
        <mxCell id="MaH_vLUPBUV075BCTrU_-63" value="Show menu" style="whiteSpace=wrap;html=1;rounded=1;arcSize=0;" vertex="1" parent="1">
          <mxGeometry x="284.12000000000006" y="2980" width="120" height="60" as="geometry" />
        </mxCell>
        <mxCell id="MaH_vLUPBUV075BCTrU_-65" value="[1] NAME&#xa;[2] DOB&#xa;[3] Contact Number&#xa;[4] Mail ID&#xa;[5] DOCUMENT&#xa;[6] Address" style="text;whiteSpace=wrap;" vertex="1" parent="1">
          <mxGeometry x="510" y="2955" width="110" height="110" as="geometry" />
        </mxCell>
        <mxCell id="MaH_vLUPBUV075BCTrU_-66" value="" style="shape=flexArrow;endArrow=classic;html=1;rounded=0;endWidth=34.03225806451613;endSize=6.5693548387096765;" edge="1" parent="1">
          <mxGeometry width="50" height="50" relative="1" as="geometry">
            <mxPoint x="433.41" y="3009.6299999999997" as="sourcePoint" />
            <mxPoint x="503.41" y="3009.6299999999997" as="targetPoint" />
            <Array as="points">
              <mxPoint x="453.41" y="3009.6299999999997" />
            </Array>
          </mxGeometry>
        </mxCell>
        <mxCell id="MaH_vLUPBUV075BCTrU_-72" style="edgeStyle=orthogonalEdgeStyle;rounded=0;orthogonalLoop=1;jettySize=auto;html=1;exitX=0.5;exitY=1;exitDx=0;exitDy=0;entryX=0.5;entryY=0;entryDx=0;entryDy=0;" edge="1" parent="1" source="MaH_vLUPBUV075BCTrU_-69" target="MaH_vLUPBUV075BCTrU_-71">
          <mxGeometry relative="1" as="geometry" />
        </mxCell>
        <mxCell id="MaH_vLUPBUV075BCTrU_-69" value="Gain data according&amp;nbsp;&lt;div&gt;to choice&amp;nbsp;&lt;/div&gt;" style="shape=parallelogram;perimeter=parallelogramPerimeter;whiteSpace=wrap;html=1;fixedSize=1;" vertex="1" parent="1">
          <mxGeometry x="259.99" y="3092" width="166.34" height="70" as="geometry" />
        </mxCell>
        <mxCell id="MaH_vLUPBUV075BCTrU_-71" value="SVG" style="shape=datastore;whiteSpace=wrap;html=1;" vertex="1" parent="1">
          <mxGeometry x="313.25" y="3202" width="60" height="60" as="geometry" />
        </mxCell>
        <mxCell id="MaH_vLUPBUV075BCTrU_-80" value="" style="edgeStyle=orthogonalEdgeStyle;rounded=0;orthogonalLoop=1;jettySize=auto;html=1;exitX=0;exitY=0.5;exitDx=0;exitDy=0;entryX=0.5;entryY=0;entryDx=0;entryDy=0;" edge="1" parent="1" source="MaH_vLUPBUV075BCTrU_-57" target="MaH_vLUPBUV075BCTrU_-76">
          <mxGeometry relative="1" as="geometry">
            <mxPoint x="340" y="3380" as="targetPoint" />
            <mxPoint x="291" y="2870" as="sourcePoint" />
            <Array as="points">
              <mxPoint x="240" y="2870" />
              <mxPoint x="240" y="3320" />
              <mxPoint x="344" y="3320" />
              <mxPoint x="344" y="3370" />
            </Array>
          </mxGeometry>
        </mxCell>
        <mxCell id="MaH_vLUPBUV075BCTrU_-76" value="&lt;div style=&quot;&quot;&gt;&lt;span style=&quot;background-color: initial;&quot;&gt;&lt;b&gt;Show message&amp;nbsp;&lt;/b&gt;&lt;/span&gt;&lt;/div&gt;&lt;div style=&quot;&quot;&gt;&lt;span style=&quot;background-color: initial;&quot;&gt;&lt;b&gt;&quot;Details not found!!&quot;&lt;/b&gt;&lt;/span&gt;&lt;/div&gt;&lt;div style=&quot;&quot;&gt;&lt;span style=&quot;background-color: initial;&quot;&gt;&lt;b&gt;&quot;Enter Right Details&quot;&lt;/b&gt;&lt;/span&gt;&lt;/div&gt;" style="shape=parallelogram;perimeter=parallelogramPerimeter;whiteSpace=wrap;html=1;fixedSize=1;align=center;" vertex="1" parent="1">
          <mxGeometry x="249.72" y="3380" width="188.82" height="50" as="geometry" />
        </mxCell>
        <mxCell id="MaH_vLUPBUV075BCTrU_-81" style="edgeStyle=orthogonalEdgeStyle;rounded=0;orthogonalLoop=1;jettySize=auto;html=1;exitX=0;exitY=0.25;exitDx=0;exitDy=0;jumpStyle=arc;jumpSize=20;" edge="1" parent="1" source="MaH_vLUPBUV075BCTrU_-76">
          <mxGeometry relative="1" as="geometry">
            <mxPoint x="200" y="2380" as="targetPoint" />
          </mxGeometry>
        </mxCell>
        <mxCell id="MaH_vLUPBUV075BCTrU_-83" style="edgeStyle=orthogonalEdgeStyle;rounded=0;orthogonalLoop=1;jettySize=auto;html=1;exitX=0;exitY=0.5;exitDx=0;exitDy=0;jumpStyle=arc;jumpSize=20;entryX=0.499;entryY=-0.007;entryDx=0;entryDy=0;entryPerimeter=0;" edge="1" parent="1" source="MaH_vLUPBUV075BCTrU_-50" target="MaH_vLUPBUV075BCTrU_-84">
          <mxGeometry relative="1" as="geometry">
            <mxPoint x="350" y="3550" as="targetPoint" />
            <Array as="points">
              <mxPoint x="150" y="2510" />
              <mxPoint x="150" y="3460" />
              <mxPoint x="354" y="3460" />
              <mxPoint x="354" y="3539" />
              <mxPoint x="353" y="3539" />
            </Array>
          </mxGeometry>
        </mxCell>
        <mxCell id="MaH_vLUPBUV075BCTrU_-84" value="if choice == 4" style="rhombus;whiteSpace=wrap;html=1;rounded=1;arcSize=0;" vertex="1" parent="1">
          <mxGeometry x="283.16" y="3547" width="140.75" height="80" as="geometry" />
        </mxCell>
        <mxCell id="MaH_vLUPBUV075BCTrU_-91" style="edgeStyle=orthogonalEdgeStyle;rounded=0;orthogonalLoop=1;jettySize=auto;html=1;exitX=0.5;exitY=1;exitDx=0;exitDy=0;entryX=0.5;entryY=0;entryDx=0;entryDy=0;" edge="1" parent="1" source="MaH_vLUPBUV075BCTrU_-87" target="MaH_vLUPBUV075BCTrU_-92">
          <mxGeometry relative="1" as="geometry">
            <mxPoint x="354.2413793103449" y="3830" as="targetPoint" />
          </mxGeometry>
        </mxCell>
        <mxCell id="MaH_vLUPBUV075BCTrU_-87" value="Show menu" style="whiteSpace=wrap;html=1;rounded=1;arcSize=0;" vertex="1" parent="1">
          <mxGeometry x="294.50000000000006" y="3710" width="120" height="60" as="geometry" />
        </mxCell>
        <mxCell id="MaH_vLUPBUV075BCTrU_-88" value="1. Withdrawal&#xa;2. Deposite&#xa;0. Exit" style="text;whiteSpace=wrap;" vertex="1" parent="1">
          <mxGeometry x="525" y="3710" width="110" height="55" as="geometry" />
        </mxCell>
        <mxCell id="MaH_vLUPBUV075BCTrU_-89" value="" style="shape=flexArrow;endArrow=classic;html=1;rounded=0;endWidth=34.03225806451613;endSize=6.5693548387096765;" edge="1" parent="1">
          <mxGeometry width="50" height="50" relative="1" as="geometry">
            <mxPoint x="440" y="3739.7099999999996" as="sourcePoint" />
            <mxPoint x="510.0000000000001" y="3739.7099999999996" as="targetPoint" />
            <Array as="points">
              <mxPoint x="460" y="3739.7099999999996" />
            </Array>
          </mxGeometry>
        </mxCell>
        <mxCell id="MaH_vLUPBUV075BCTrU_-90" style="edgeStyle=orthogonalEdgeStyle;rounded=0;orthogonalLoop=1;jettySize=auto;html=1;exitX=0.5;exitY=1;exitDx=0;exitDy=0;entryX=0.484;entryY=-0.052;entryDx=0;entryDy=0;entryPerimeter=0;" edge="1" parent="1" source="MaH_vLUPBUV075BCTrU_-84" target="MaH_vLUPBUV075BCTrU_-87">
          <mxGeometry relative="1" as="geometry" />
        </mxCell>
        <mxCell id="MaH_vLUPBUV075BCTrU_-99" style="edgeStyle=orthogonalEdgeStyle;rounded=0;orthogonalLoop=1;jettySize=auto;html=1;exitX=0.5;exitY=1;exitDx=0;exitDy=0;entryX=0.5;entryY=0;entryDx=0;entryDy=0;" edge="1" parent="1" source="MaH_vLUPBUV075BCTrU_-92" target="MaH_vLUPBUV075BCTrU_-95">
          <mxGeometry relative="1" as="geometry" />
        </mxCell>
        <mxCell id="MaH_vLUPBUV075BCTrU_-92" value="if choice == 1" style="rhombus;whiteSpace=wrap;html=1;rounded=1;arcSize=0;" vertex="1" parent="1">
          <mxGeometry x="283.16" y="3830" width="140.75" height="80" as="geometry" />
        </mxCell>
        <mxCell id="MaH_vLUPBUV075BCTrU_-94" value="" style="edgeStyle=orthogonalEdgeStyle;rounded=0;orthogonalLoop=1;jettySize=auto;html=1;entryX=0.5;entryY=0;entryDx=0;entryDy=0;" edge="1" source="MaH_vLUPBUV075BCTrU_-95" target="MaH_vLUPBUV075BCTrU_-96" parent="1">
          <mxGeometry relative="1" as="geometry" />
        </mxCell>
        <mxCell id="MaH_vLUPBUV075BCTrU_-95" value="&lt;font style=&quot;font-size: 14px;&quot;&gt;Call Withdrawl function&lt;/font&gt;" style="whiteSpace=wrap;html=1;rounded=1;arcSize=0;" vertex="1" parent="1">
          <mxGeometry x="293.53499999999997" y="3970.41" width="120" height="60" as="geometry" />
        </mxCell>
        <mxCell id="MaH_vLUPBUV075BCTrU_-96" value="Input user details for validation" style="shape=parallelogram;perimeter=parallelogramPerimeter;whiteSpace=wrap;html=1;fixedSize=1;" vertex="1" parent="1">
          <mxGeometry x="284.12" y="4075.41" width="139" height="70" as="geometry" />
        </mxCell>
        <mxCell id="MaH_vLUPBUV075BCTrU_-97" value="&lt;div&gt;&lt;b&gt;&lt;font style=&quot;font-size: 19px;&quot;&gt;User Details&lt;/font&gt;&lt;/b&gt;&lt;/div&gt;&lt;div&gt;&lt;b style=&quot;background-color: initial;&quot;&gt;Account No. &lt;/b&gt;&lt;span style=&quot;background-color: initial;&quot;&gt;or&amp;nbsp;&lt;/span&gt;&lt;/div&gt;&lt;div&gt;&lt;b style=&quot;background-color: initial;&quot;&gt;Customer no. &lt;/b&gt;&lt;span style=&quot;background-color: initial;&quot;&gt;or&amp;nbsp;&lt;/span&gt;&lt;/div&gt;&lt;div&gt;&lt;b style=&quot;background-color: initial;&quot;&gt;Document no. &lt;/b&gt;&lt;span style=&quot;background-color: initial;&quot;&gt;&amp;amp;&amp;nbsp;&lt;/span&gt;&lt;/div&gt;&lt;div&gt;&lt;b style=&quot;background-color: initial;&quot;&gt;Date of Birth&lt;/b&gt;&lt;/div&gt;" style="text;whiteSpace=wrap;html=1;" vertex="1" parent="1">
          <mxGeometry x="530.37" y="4065.41" width="120" height="90" as="geometry" />
        </mxCell>
        <mxCell id="MaH_vLUPBUV075BCTrU_-98" value="" style="shape=flexArrow;endArrow=classic;html=1;rounded=0;endWidth=34.03225806451613;endSize=6.5693548387096765;" edge="1" parent="1">
          <mxGeometry width="50" height="50" relative="1" as="geometry">
            <mxPoint x="450.37" y="4110.41" as="sourcePoint" />
            <mxPoint x="520.37" y="4110.41" as="targetPoint" />
            <Array as="points">
              <mxPoint x="470.37" y="4110.41" />
            </Array>
          </mxGeometry>
        </mxCell>
      </root>
    </mxGraphModel>
  </diagram>
</mxfile>
